<?xml version="1.0" encoding="utf-8"?>
<!-- Generator: Adobe Illustrator 25.4.1, SVG Export Plug-In . SVG Version: 6.00 Build 0)  -->
<svg version="1.1" id="Layer_1" xmlns="http://www.w3.org/2000/svg" xmlns:xlink="http://www.w3.org/1999/xlink" x="0px" y="0px"
	 viewBox="0 0 1032 316" style="enable-background:new 0 0 1032 316;" xml:space="preserve">
<style type="text/css">
	.st0{fill:#FFFFFF;}
	.st1{fill:#FF2600;}
	.st2{fill:#FFFFFF;stroke:#FF2600;stroke-width:2;stroke-miterlimit:10;}
	.st3{fill:#FFFFFF;stroke:#FF2600;stroke-width:3.7332;stroke-miterlimit:10;}
	.st4{fill:#FFFFFF;stroke:#FF2600;stroke-width:2.8787;stroke-miterlimit:10;}
	.st5{fill:#FFFFFF;stroke:#000000;stroke-width:3.7332;stroke-miterlimit:10;}
	.st6{stroke:#FFFFFF;stroke-width:3.7332;stroke-miterlimit:10;}
	.st7{fill:#FFFFFF;stroke:#FF2600;stroke-width:2.9007;stroke-miterlimit:10;}
	.st8{fill:#FFFFFF;stroke:#FF2600;stroke-width:2.967;stroke-miterlimit:10;}
    .text-color{fill:#FFFFFF;}
</style>
<g>
	<g>
		<g>
			<g>
				<path class="text-color" d="M390.33,237.22c0,16.85-9.99,28.02-24.06,28.02c-9.98,0-16.64-4.98-20.06-12.59v33.91h-6.85v-76.05h6.66l0.19,11.57
					c3.42-7.61,10.08-12.59,20.06-12.59C380.34,209.5,390.33,220.57,390.33,237.22z M383.2,237.32c0-12.89-7.42-21.42-18.54-21.42
					c-11.03,0-18.45,8.53-18.45,21.52c0,12.89,7.42,21.52,18.45,21.52C375.78,258.95,383.2,250.31,383.2,237.32z"/>
				<path class="text-color" d="M402.88,185.03h6.85v79.19h-6.85V185.03z"/>
				<path class="text-color" d="M424.95,243.72v-33.2h6.85v32.49c0,9.54,6.09,15.94,15.31,15.94c9.22,0,15.31-6.4,15.31-15.94v-32.49h6.85v33.2
					c0,12.89-8.84,21.52-22.16,21.52C433.79,265.24,424.95,256.71,424.95,243.72z"/>
				<path class="text-color" d="M481.34,259.55l2.85-4.57c4.18,3.25,9.22,4.37,14.45,4.37c7.13,0,11.89-3.55,11.89-9.04c0-5.08-4.47-7.92-10.56-9.75
					l-5.42-1.73c-7.89-2.34-13.31-5.69-13.31-13.71c0-9.44,7.04-15.64,17.69-15.64c6.75,0,12.27,1.52,17.12,4.87l-2.95,4.98
					c-4.28-2.84-8.84-3.96-13.69-3.96c-6.66,0-11.13,3.35-11.13,8.63c0,4.97,3.9,7.21,9.32,8.83l5.42,1.73
					c7.61,2.23,14.55,6.29,14.55,15.13c0,9.34-7.32,15.53-18.92,15.53C491.52,265.24,485.24,263.31,481.34,259.55z"/>
			</g>
		</g>
		<g>
			<g>
				<path class="text-color" d="M429.27,126.83c0,27.72-17.82,45.92-39.95,45.92c-11.21,0-19.67-4.59-25.35-12.63l-0.46,10.99h-25.2V43.19h26.12v49.04
					c5.68-7.71,13.98-12.14,24.89-12.14C411.44,80.09,429.27,98.95,429.27,126.83z M402.38,126.5c0-13.45-7.68-22.63-18.9-22.63
					c-11.37,0-19.05,9.18-19.05,22.47c0,13.61,7.68,22.47,19.05,22.47C394.7,148.81,402.38,139.79,402.38,126.5z"/>
				<path class="text-color" d="M524.83,136.18h-57.46c1.54,9.18,6.14,14.76,16.13,14.76c7.07,0,12.91-3.12,16.9-8.2l20.28,10.5
					c-7.22,11.64-20.59,19.52-36.87,19.52c-26.42,0-44.09-18.04-44.09-45.43c0-28.21,17.05-47.23,42.86-47.23
					c25.66,0,42.86,17.88,42.86,44.94C525.44,128.8,525.13,133.06,524.83,136.18z M467.52,117.48h30.57
					c-1.69-10.17-6.76-15.58-15.52-15.58C473.97,101.9,469.21,107.48,467.52,117.48z"/>
				<path class="text-color" d="M535.27,126.34c0-27.72,18.44-46.25,46.09-46.25c27.19,0,45.63,18.53,45.63,46.25c0,27.88-18.44,46.41-45.63,46.41
					C553.71,172.75,535.27,154.22,535.27,126.34z M599.95,126.34c0-13.45-7.53-22.47-18.74-22.47c-11.37,0-18.9,9.02-18.9,22.47
					s7.53,22.47,18.9,22.47C592.43,148.81,599.95,139.79,599.95,126.34z"/>
				<path class="text-color" d="M725.63,115.02v56.09h-26.12v-51.82c0-9.35-6.3-15.42-15.82-15.42c-9.68,0-15.98,6.07-15.98,15.42v51.82h-26.12V81.73
					h25.2l0.31,10c6.61-7.87,15.98-11.64,25.81-11.64C712.57,80.09,725.63,94.03,725.63,115.02z"/>
				<path class="text-color" d="M743.91,43.19h26.12v127.92h-26.12V43.19z"/>
				<path class="text-color" d="M787.08,55.33c0-9.35,6.45-16.07,15.21-16.07c8.76,0,15.06,6.72,15.06,16.07c0,9.35-6.3,16.07-15.06,16.07
					C793.54,71.4,787.08,64.68,787.08,55.33z M789.08,81.73h26.12v89.38h-26.12V81.73z"/>
				<path class="text-color" d="M918.44,115.02v56.09h-26.12v-51.82c0-9.35-6.3-15.42-15.82-15.42c-9.68,0-15.98,6.07-15.98,15.42v51.82h-26.12V81.73
					h25.2l0.31,10c6.61-7.87,15.98-11.64,25.81-11.64C905.38,80.09,918.44,94.03,918.44,115.02z"/>
				<path class="text-color" d="M1017.39,136.18h-57.46c1.54,9.18,6.14,14.76,16.13,14.76c7.07,0,12.91-3.12,16.9-8.2l20.28,10.5
					c-7.22,11.64-20.59,19.52-36.87,19.52c-26.42,0-44.09-18.04-44.09-45.43c0-28.21,17.05-47.23,42.86-47.23
					c25.66,0,42.86,17.88,42.86,44.94C1018,128.8,1017.69,133.06,1017.39,136.18z M960.08,117.48h30.57
					c-1.69-10.17-6.76-15.58-15.52-15.58C966.53,101.9,961.77,107.48,960.08,117.48z"/>
			</g>
		</g>
		<g>
			<path class="st1" d="M567.98,200.04h-25.96v28.37h-20.89v-28.37h-25.96v-18.37h25.96v-28.54h20.89v28.54h25.96V200.04z"/>
		</g>
	</g>
	<g>
		<path class="st3" d="M251.64,168.19L52.94,279.92c-18.43,10.36-41.18-3.01-41.09-24.15l0.81-203.69
			c0.12-30.67,33.29-49.8,59.9-34.56l179.28,102.7C270.41,130.86,270.3,157.69,251.64,168.19z"/>
		<path class="st1" d="M246.58,188.44L51.24,300.18c-18.27,10.45-41-2.8-40.92-23.84l0.9-225.04c0.08-21.05,22.92-34.11,41.11-23.52
			l194.44,113.3C264.96,151.68,264.85,177.99,246.58,188.44z"/>
		<path class="st0" d="M121.77,66.08c0,0-13.77-2.3-22.96,2.3s-18.37,16.07-18.37,43.62s0,78.06,0,78.06l-20.66-16.07l-20.66,18.37
			c0,0,0-89.54,2.3-112.49s18.37-41.32,45.92-34.44L121.77,66.08z"/>
	</g>
</g>
</svg>
